{
  "accessors": [
    {
      "bufferView": 2,
      "componentType": 5126,
      "count": 2083,
      "max": [
        0.5308520197868347,
        0.25635600090026855,
        1.165822982788086
      ],
      "min": [
        -0.5513139963150024,
        -0.257066011428833,
        -0.07221300154924393
      ],
      "type": "VEC3"
    },
    {
      "bufferView": 2,
      "byteOffset": 24996,
      "componentType": 5126,
      "count": 2083,
      "max": [
        0.9972823262214661,
        0.999953031539917,
        0.9993152618408203
      ],
      "min": [
        -0.9972823262214661,
        -0.9999409914016724,
        -1.0
      ],
      "type": "VEC3"
    },
    {
      "bufferView": 1,
      "componentType": 5126,
      "count": 2083,
      "max": [
        3.990233898162842,
        0.9921879768371582
      ],
      "min": [
        0.00894199963659048,
        0.007422999944537878
      ],
      "type": "VEC2"
    },
    {
      "bufferView": 0,
      "componentType": 5125,
      "count": 9474,
      "type": "SCALAR"
    }
  ],
  "asset": {
    "extras": {
      "author": "eduardosouzabarbosadasilva (https://sketchfab.com/eduardosouzabarbosadasilva)",
      "license": "CC-BY-4.0 (http://creativecommons.org/licenses/by/4.0/)",
      "source": "https://sketchfab.com/3d-models/plants-vs-zombies-3-pre-alpha-sunflower-db157ae94f3d44eaa5b3af267174e0a0",
      "title": "Plants vs. Zombies 3 (Pre-Alpha) - Sunflower"
    },
    "generator": "Sketchfab-17.2.0",
    "version": "2.0"
  },
  "bufferViews": [
    {
      "buffer": 0,
      "byteLength": 37896,
      "name": "floatBufferViews",
      "target": 34963
    },
    {
      "buffer": 0,
      "byteLength": 16664,
      "byteOffset": 37896,
      "byteStride": 8,
      "name": "floatBufferViews",
      "target": 34962
    },
    {
      "buffer": 0,
      "byteLength": 49992,
      "byteOffset": 54560,
      "byteStride": 12,
      "name": "floatBufferViews",
      "target": 34962
    }
  ],
  "buffers": [
    {
      "byteLength": 104552,
      "uri": "scene.bin"
    }
  ],
  "extensionsUsed": [
    "KHR_materials_unlit"
  ],
  "images": [
    {
      "uri": "textures/m0mat_3_baseColor.png"
    }
  ],
  "materials": [
    {
      "doubleSided": true,
      "extensions": {
        "KHR_materials_unlit": {}
      },
      "name": "m0mat_3",
      "pbrMetallicRoughness": {
        "baseColorTexture": {
          "index": 0
        },
        "metallicFactor": 0.0
      }
    }
  ],
  "meshes": [
    {
      "name": "Object_0",
      "primitives": [
        {
          "attributes": {
            "NORMAL": 1,
            "POSITION": 0,
            "TEXCOORD_0": 2
          },
          "indices": 3,
          "material": 0,
          "mode": 4
        }
      ]
    }
  ],
  "nodes": [
    {
      "children": [
        1
      ],
      "matrix": [
        1.0,
        0.0,
        0.0,
        0.0,
        0.0,
        2.220446049250313e-16,
        -1.0,
        0.0,
        0.0,
        1.0,
        2.220446049250313e-16,
        0.0,
        0.0,
        0.0,
        0.0,
        1.0
      ],
      "name": "Sketchfab_model"
    },
    {
      "children": [
        2
      ],
      "name": "81e74de2bb0f4789a0a60f6dfe9f4320.obj.cleaner.materialmerger.gles"
    },
    {
      "mesh": 0,
      "name": "Object_2"
    }
  ],
  "samplers": [
    {
      "magFilter": 9729,
      "minFilter": 9987,
      "wrapS": 10497,
      "wrapT": 10497
    }
  ],
  "scene": 0,
  "scenes": [
    {
      "name": "Sketchfab_Scene",
      "nodes": [
        0
      ]
    }
  ],
  "textures": [
    {
      "sampler": 0,
      "source": 0
    }
  ]
}
