{
  "accessors": [
    {
      "bufferView": 2,
      "componentType": 5126,
      "count": 693,
      "max": [
        10.945989608764648,
        26.71615219116211,
        17.15035629272461
      ],
      "min": [
        -10.954129219055176,
        -3.007953643798828,
        -14.635464668273926
      ],
      "type": "VEC3"
    },
    {
      "bufferView": 2,
      "byteOffset": 8316,
      "componentType": 5126,
      "count": 693,
      "max": [
        0.9980468153953552,
        0.9921092987060547,
        0.9975279569625854
      ],
      "min": [
        -0.9979684352874756,
        -0.9999998807907104,
        -0.999992311000824
      ],
      "type": "VEC3"
    },
    {
      "bufferView": 1,
      "componentType": 5126,
      "count": 693,
      "max": [
        0.9895915985107422,
        0.9911373853683472
      ],
      "min": [
        0.010656806640326977,
        0.00759519636631012
      ],
      "type": "VEC2"
    },
    {
      "bufferView": 0,
      "componentType": 5125,
      "count": 3234,
      "type": "SCALAR"
    }
  ],
  "asset": {
    "extras": {
      "author": "amogusstrikesback2 (https://sketchfab.com/amogusstrikesback2)",
      "license": "CC-BY-4.0 (http://creativecommons.org/licenses/by/4.0/)",
      "source": "https://sketchfab.com/3d-models/mario-kart-tour-rubber-duck-88fd42ddf76d43bab01517241201e31f",
      "title": "mario kart tour - rubber duck"
    },
    "generator": "Sketchfab-17.19.0",
    "version": "2.0"
  },
  "bufferViews": [
    {
      "buffer": 0,
      "byteLength": 12936,
      "name": "floatBufferViews",
      "target": 34963
    },
    {
      "buffer": 0,
      "byteLength": 5544,
      "byteOffset": 12936,
      "byteStride": 8,
      "name": "floatBufferViews",
      "target": 34962
    },
    {
      "buffer": 0,
      "byteLength": 16632,
      "byteOffset": 18480,
      "byteStride": 12,
      "name": "floatBufferViews",
      "target": 34962
    }
  ],
  "buffers": [
    {
      "byteLength": 35112,
      "uri": "scene.bin"
    }
  ],
  "images": [
    {
      "uri": "textures/M_DuckToy_baseColor.png"
    }
  ],
  "materials": [
    {
      "doubleSided": true,
      "name": "M_DuckToy",
      "pbrMetallicRoughness": {
        "baseColorTexture": {
          "index": 0
        },
        "metallicFactor": 0.0,
        "roughnessFactor": 0.9577051494623774
      }
    }
  ],
  "meshes": [
    {
      "name": "DuckToy_M_DuckToy_0",
      "primitives": [
        {
          "attributes": {
            "NORMAL": 1,
            "POSITION": 0,
            "TEXCOORD_0": 2
          },
          "indices": 3,
          "material": 0,
          "mode": 4
        }
      ]
    }
  ],
  "nodes": [
    {
      "children": [
        1
      ],
      "matrix": [
        1.0,
        0.0,
        0.0,
        0.0,
        0.0,
        2.220446049250313e-16,
        -1.0,
        0.0,
        0.0,
        1.0,
        2.220446049250313e-16,
        0.0,
        0.0,
        0.0,
        0.0,
        1.0
      ],
      "name": "Sketchfab_model"
    },
    {
      "children": [
        2
      ],
      "matrix": [
        0.009999999776482582,
        0.0,
        0.0,
        0.0,
        0.0,
        0.0,
        0.009999999776482582,
        0.0,
        0.0,
        -0.009999999776482582,
        0.0,
        0.0,
        0.0,
        0.0,
        0.0,
        1.0
      ],
      "name": "DuckToy_Prefab.fbx"
    },
    {
      "children": [
        3
      ],
      "name": "RootNode"
    },
    {
      "children": [
        4
      ],
      "name": "DuckToy_Prefab"
    },
    {
      "children": [
        5
      ],
      "name": "DuckToy"
    },
    {
      "mesh": 0,
      "name": "DuckToy_M_DuckToy_0"
    }
  ],
  "samplers": [
    {
      "magFilter": 9729,
      "minFilter": 9987,
      "wrapS": 10497,
      "wrapT": 10497
    }
  ],
  "scene": 0,
  "scenes": [
    {
      "name": "Sketchfab_Scene",
      "nodes": [
        0
      ]
    }
  ],
  "textures": [
    {
      "sampler": 0,
      "source": 0
    }
  ]
}
