<svg width="102" height="65" viewBox="0 0 102 65" fill="none" xmlns="http://www.w3.org/2000/svg">
<path d="M24.04 32.664L22.984 36.984H34.504L33.448 32.664C32.68 29.656 31.912 26.392 31.144 22.872C30.376 19.352 29.608 16.024 28.84 12.888H28.456C27.816 16.024 27.112 19.352 26.344 22.872C25.576 26.392 24.808 29.656 24.04 32.664ZM0.0399999 63L19.048 0.599997H39.016L58.024 63H40.552L37.48 49.752H20.008L16.936 63H0.0399999ZM80.2945 64.152C75.2385 64.152 70.9825 63.192 67.5265 61.272C64.1345 59.288 61.2865 56.312 58.9825 52.344L70.1185 43.992C71.2065 45.976 72.4545 47.48 73.8625 48.504C75.2705 49.464 76.6465 49.944 77.9905 49.944C80.2305 49.944 81.9265 49.272 83.0785 47.928C84.2945 46.52 84.9025 43.864 84.9025 39.96V0.599997H101.415V41.304C101.415 45.464 100.647 49.272 99.1105 52.728C97.6385 56.184 95.3345 58.968 92.1985 61.08C89.0625 63.128 85.0945 64.152 80.2945 64.152Z" fill="url(#paint0_radial_130_2)"/>
<defs>
<radialGradient id="paint0_radial_130_2" cx="0" cy="0" r="1" gradientUnits="userSpaceOnUse" gradientTransform="translate(20 73) rotate(-25.4828) scale(189.429 82.3795)">
<stop stop-color="#9417DE"/>
<stop offset="0.0001" stop-color="#9B26E0" stop-opacity="0.9375"/>
<stop offset="0.9999" stop-color="#C417F0"/>
<stop offset="1" stop-color="white" stop-opacity="0"/>
</radialGradient>
</defs>
</svg>
